<?xml version="1.0" encoding="iso-8859-1"?>
<!-- Generator: Adobe Illustrator 19.0.0, SVG Export Plug-In . SVG Version: 6.00 Build 0)  -->
<svg version="1.1" id="Capa_1" xmlns="http://www.w3.org/2000/svg" xmlns:xlink="http://www.w3.org/1999/xlink" x="0px" y="0px"
	 viewBox="0 0 480.108 480.108" style="enable-background:new 0 0 480.108 480.108;" xml:space="preserve">
<path style="fill:#FF7F00;" d="M152.054,328h-51.432L8.054,418.664L59.486,472l92.568-90.664V328z"/>
<path style="fill:#F4393D;" d="M312.054,168h57.144L472.054,67.256L414.91,8L312.054,108.744V168z"/>
<path style="fill:#17AFDC;" d="M200.054,264l33.392,112h123.696l34.912-112H200.054z"/>
<g>
	<circle style="fill:#DBE6FD;" cx="264.054" cy="456" r="16"/>
	<circle style="fill:#DBE6FD;" cx="352.054" cy="456" r="16"/>
</g>
<path style="fill:#FCCC38;" d="M232.054,232v-80L91.014,8L8.054,88l141.04,144H232.054z"/>
<path d="M357.148,384H233.445c-3.538,0.001-6.655-2.324-7.664-5.715l-33.391-112c-1.264-4.232,1.142-8.687,5.374-9.951
	c0.743-0.222,1.514-0.335,2.29-0.334h192c4.418-0.001,8.001,3.579,8.003,7.997c0,0.807-0.122,1.61-0.362,2.381l-34.906,112
	C363.744,381.722,360.65,383.998,357.148,384z M239.406,368h111.859l29.914-96H210.788L239.406,368z"/>
<path d="M248.054,296h96v16h-96V296z"/>
<path d="M256.054,328h80v16h-80V328z"/>
<path d="M440.054,248c-3.352,0-6.349,2.089-7.508,5.234L378.476,400H216.054v16h40v17.474
	c-12.497,4.418-19.046,18.131-14.627,30.627c4.418,12.497,18.131,19.046,30.627,14.627c12.497-4.418,19.046-18.131,14.627-30.627
	c-2.416-6.835-7.793-12.211-14.627-14.627V416h72v17.474c-12.497,4.418-19.046,18.131-14.627,30.627
	c4.418,12.497,18.131,19.046,30.627,14.627c12.497-4.418,19.046-18.131,14.627-30.627c-2.416-6.835-7.793-12.211-14.627-14.627V416
	h24c3.352,0,6.349-2.089,7.508-5.234L445.632,264h34.422v-16H440.054z M264.054,464c-4.418,0-8-3.582-8-8s3.582-8,8-8s8,3.582,8,8
	C272.05,460.417,268.47,463.996,264.054,464z M352.054,464c-4.418,0-8-3.582-8-8s3.582-8,8-8s8,3.582,8,8
	C360.05,460.417,356.47,463.996,352.054,464z"/>
<path d="M232.054,240h-80c-2.122,0-4.156-0.843-5.656-2.344l-144-144c-3.124-3.122-3.125-8.186-0.003-11.309
	c0.001-0.001,0.002-0.002,0.003-0.003l80-80c3.122-3.124,8.186-3.125,11.309-0.003c0.001,0.001,0.002,0.002,0.003,0.003l144,144
	c1.5,1.5,2.343,3.535,2.344,5.656v80c0.001,4.417-3.579,7.999-7.996,8C232.057,240,232.055,240,232.054,240L232.054,240z
	 M155.366,224h68.688v-68.688l-136-136L19.366,88L155.366,224z"/>
<path d="M374.109,127.989c-12.175,0.009-22.052-9.853-22.062-22.028c-0.004-5.858,2.323-11.477,6.468-15.616l11.312,11.312
	c-2.366,2.367-2.365,6.203,0.002,8.568c2.367,2.366,6.203,2.365,8.568-0.002c2.164-2.16,2.523-2.957-1.43-10.492
	c-3.586-6.828-9.586-18.258,1.43-29.27c8.609-8.619,22.576-8.627,31.195-0.018s8.627,22.576,0.018,31.195
	c-0.006,0.006-0.012,0.012-0.018,0.018l-11.312-11.312c2.366-2.367,2.365-6.203-0.002-8.568c-2.367-2.366-6.203-2.365-8.568,0.002
	c-2.172,2.172-2.539,2.973,1.422,10.52c3.578,6.824,9.57,18.246-1.422,29.242C385.573,125.676,379.959,127.997,374.109,127.989z"/>
<path d="M79.765,419.989c-10.881,0.01-19.71-8.802-19.72-19.682c-0.005-5.238,2.076-10.262,5.783-13.962l11.312,11.312
	c-1.455,1.448-1.461,3.801-0.013,5.256c1.448,1.455,3.801,1.461,5.256,0.013c0.005-0.005,0.01-0.01,0.015-0.015
	c1.297-1.297,1.531-1.531-1.43-7.18c-5.981-7.822-5.375-18.835,1.43-25.953c7.699-7.7,20.181-7.701,27.881-0.002
	c7.7,7.699,7.701,20.181,0.002,27.881l-11.312-11.312c1.455-1.448,1.461-3.801,0.013-5.256c-1.448-1.455-3.801-1.461-5.256-0.013
	c-0.005,0.005-0.01,0.01-0.015,0.015c-1.312,1.309-1.547,1.547,1.422,7.207c5.976,7.814,5.373,18.816-1.422,25.93
	C90.014,417.927,84.995,420,79.765,419.989L79.765,419.989z"/>
<path d="M368.054,176h-56c-4.417,0.001-7.999-3.579-8-7.996c0-0.001,0-0.003,0-0.004v-56c0.001-2.122,0.844-4.156,2.344-5.656
	l104-104c3.122-3.124,8.186-3.125,11.309-0.003c0.001,0.001,0.002,0.002,0.003,0.003l56,56c3.124,3.122,3.125,8.186,0.003,11.309
	c-0.001,0.001-0.002,0.002-0.003,0.003l-104,104C372.211,175.158,370.176,176.001,368.054,176L368.054,176z M320.054,160h44.688
	l96-96l-44.688-44.688l-96,96V160z"/>
<path d="M64.054,480c-2.122,0.002-4.158-0.841-5.656-2.344l-56-56c-3.124-3.122-3.125-8.186-0.003-11.309
	c0.001-0.001,0.002-0.002,0.003-0.003l88-88c1.5-1.501,3.534-2.344,5.656-2.344h56c4.417-0.001,7.999,3.579,8,7.996
	c0,0.001,0,0.003,0,0.004v56c-0.001,2.122-0.844,4.156-2.344,5.656l-88,88C68.212,479.159,66.176,480.003,64.054,480L64.054,480z
	 M19.366,416l44.688,44.688l80-80V336H99.366L19.366,416z"/>
<path d="M188.054,200c-6.627,0-12-5.373-12-12s5.373-12,12-12s12,5.373,12,12C200.047,194.625,194.678,199.993,188.054,200z"/>
<path d="M161.602,150.236c5.411-10.312,3.51-22.942-4.697-31.205c-13.273-13.281-26.867-6.148-35.867-1.422
	c-9.719,5.098-12.664,5.898-17.148,1.422c-4.187-4.206-4.171-11.01,0.035-15.197c4.192-4.172,10.967-4.173,15.16-0.002
	l11.313-11.312c-8.263-8.208-20.895-10.108-31.208-4.696l-13.48-13.48L74.398,85.656L87.88,99.138
	c-5.41,10.313-3.509,22.943,4.698,31.206c13.289,13.301,26.898,6.156,35.898,1.434c9.688-5.102,12.633-5.902,17.117-1.434
	c4.196,4.196,4.196,10.999,0,15.195s-10.999,4.196-15.195,0l-11.312,11.313c8.216,8.298,20.91,10.208,31.204,4.696l12.108,12.108
	l11.312-11.312L161.602,150.236z"/>
<path d="M296.054,192h16v16h-16V192z"/>
<path d="M296.054,224h16v16h-16V224z"/>
<path d="M160.054,256h16v16h-16V256z"/>
<path d="M160.054,288h16v16h-16V288z"/>
<g>
</g>
<g>
</g>
<g>
</g>
<g>
</g>
<g>
</g>
<g>
</g>
<g>
</g>
<g>
</g>
<g>
</g>
<g>
</g>
<g>
</g>
<g>
</g>
<g>
</g>
<g>
</g>
<g>
</g>
</svg>
